<svg width="2048" height="372" viewBox="0 0 2048 372" fill="none" xmlns="http://www.w3.org/2000/svg">
<path d="M1046 184.462C1120.13 176.883 1131.92 150.47 1136.36 91C1148.83 166.34 1169.95 184.501 1226.72 184.462C1162.48 193.987 1144.63 216.146 1136.36 277.925C1133.74 217.216 1114.04 196.691 1046 184.462Z" fill="white"/>
<path d="M1343.97 347.709C1344.48 354.558 1348.07 358.773 1353.7 360.353C1360.36 362.461 1367.54 362.987 1375.22 362.461H1377.27V367.202H1366C1361.39 366.675 1356.26 366.675 1351.65 366.675C1347.04 366.675 1342.94 366.675 1339.87 366.675H1321.42C1315.78 367.202 1309.64 367.202 1304 367.202V362.461H1306.56C1313.22 362.987 1319.88 362.461 1326.55 360.88C1333.21 359.3 1336.79 355.085 1337.31 347.709V28.4489C1336.79 21.6001 1333.21 16.8586 1326.55 15.2781C1319.88 13.6976 1313.22 13.1708 1306.56 13.6976H1304V8.95616C1310.66 8.95616 1316.81 8.95616 1322.96 9.48298H1359.34C1361.39 9.48298 1363.44 9.48298 1365.49 8.95616L1478.21 271.845L1481.29 279.221L1499.22 320.841L1611.95 8.95616H1614C1615.53 8.95616 1617.07 8.95616 1618.61 9.48298C1627.32 10.0098 1636.03 10.0098 1645.77 9.48298H1654.48C1662.67 8.95616 1670.87 8.95616 1679.07 8.95616V13.6976H1676.51C1669.85 13.1708 1663.19 13.6976 1656.53 15.2781C1649.86 16.8586 1646.28 21.6001 1645.77 28.4489V347.709C1646.28 355.085 1649.86 359.3 1656.53 360.88C1663.19 362.461 1669.85 362.987 1676.51 362.461H1679.07V367.202C1670.87 367.202 1662.67 367.202 1654.48 366.675C1646.28 366.148 1638.08 366.148 1629.37 366.148C1621.68 366.148 1613.48 366.148 1605.29 366.675C1596.58 367.202 1588.38 367.202 1580.18 367.202V362.461H1582.74C1589.4 362.987 1596.06 362.461 1602.72 360.88C1609.39 359.3 1612.97 355.085 1614 347.709V23.7075L1606.82 43.7271C1567.37 151.728 1528.43 259.201 1489.49 367.202H1482.31L1482.82 366.148L1382.91 133.815L1343.97 42.6734V347.709Z" fill="white"/>
<path d="M1867.75 205.465C1863.13 215.474 1853.4 223.377 1839.05 230.226C1824.71 237.074 1810.36 242.87 1795.5 247.611C1785.25 251.299 1777.05 254.46 1770.39 257.621C1756.56 263.943 1746.82 272.899 1740.16 284.489C1733.5 296.08 1731.96 309.25 1736.57 324.529C1741.19 338.226 1751.43 348.236 1766.81 354.558C1781.66 360.88 1800.62 360.88 1822.66 354.031C1838.03 349.29 1852.89 339.28 1867.75 323.475V205.465ZM1900.03 344.021C1901.56 355.085 1906.69 360.88 1915.4 361.407C1920.01 361.934 1924.11 360.353 1928.72 357.192L1932.31 362.461C1924.11 369.309 1914.89 372.47 1904.13 371.944C1881.07 370.363 1868.77 357.719 1867.75 332.958C1844.69 358.773 1815.48 371.417 1779.62 371.944C1755.53 371.417 1737.09 365.095 1723.76 353.504C1709.93 341.914 1702.76 328.216 1702.24 312.411C1702.76 287.65 1712.49 269.738 1731.45 259.201C1750.41 249.192 1771.42 241.289 1794.47 236.548C1807.8 233.387 1819.58 229.699 1829.83 226.011C1846.74 219.689 1859.55 209.152 1867.75 194.928V169.113C1867.75 154.889 1864.67 144.352 1859.04 136.45C1852.89 128.547 1845.71 123.279 1837 120.118C1828.29 116.957 1819.58 115.376 1811.9 115.376C1803.19 115.376 1794.47 116.43 1785.25 119.064C1776.03 121.698 1768.85 126.967 1763.73 134.869C1760.14 140.664 1758.61 146.986 1758.61 153.835C1758.09 161.211 1759.12 168.059 1760.66 174.381C1761.17 174.908 1761.17 175.435 1761.17 177.016C1761.17 178.596 1761.17 180.703 1760.66 182.811C1760.14 184.918 1759.12 187.025 1757.58 189.133C1754 192.821 1749.9 194.928 1744.26 195.455C1738.62 195.982 1733.5 194.401 1729.4 191.767C1721.71 184.918 1719.15 175.962 1722.23 164.898C1724.79 154.362 1728.89 145.406 1735.04 138.557C1745.28 127.493 1757.58 120.118 1771.93 115.376C1787.3 111.162 1801.14 109.054 1813.95 109.054H1829.32C1839.56 109.581 1849.3 111.688 1858.01 115.376C1861.6 116.957 1864.67 119.064 1867.75 121.171C1886.7 132.762 1897.47 151.201 1900.03 175.962V344.021Z" fill="white"/>
<path d="M2004.45 54.2637C1997.27 54.2637 1991.12 51.6295 1986 46.3612C1980.88 41.0929 1978.31 34.7709 1978.31 26.8684C1978.31 19.4928 1980.88 13.1708 1986 7.90247C1991.12 2.63416 1997.27 0 2004.45 0C2011.62 0 2017.77 2.63416 2022.89 7.90247C2028.02 13.1708 2030.58 19.4928 2030.58 26.8684C2030.58 34.7709 2028.02 41.0929 2022.89 46.3612C2017.77 51.6295 2011.62 54.2637 2004.45 54.2637ZM1992.15 347.709V160.684C1992.15 151.201 1989.59 144.879 1983.95 141.191C1978.31 138.03 1971.14 136.976 1962.94 137.503V132.762C1972.68 132.762 1983.44 131.181 1994.71 127.493C2005.47 124.332 2014.69 119.064 2021.87 111.162H2023.92V347.709C2024.43 353.504 2027.5 357.719 2032.12 359.3C2036.73 361.407 2042.36 362.461 2048 362.461V367.202C2042.88 367.202 2037.75 367.202 2032.63 366.675C2024.43 366.148 2016.23 366.148 2008.03 366.148C1999.84 366.148 1991.64 366.148 1983.44 366.675C1978.31 367.202 1973.19 367.202 1968.07 367.202V362.461C1973.7 362.461 1979.34 361.407 1983.95 359.3C1988.56 357.719 1991.64 353.504 1992.15 347.709Z" fill="white"/>
<path d="M0 89.5652C7.56839 66.665 14.6322 43.7648 21.1915 20.3557C21.6961 18.3202 22.2006 16.2846 22.7052 14.7579C67.611 17.3024 113.021 18.3202 158.432 17.8113C204.347 17.8113 250.766 16.7935 296.681 14.7579C296.176 16.2846 295.167 18.3202 294.663 20.3557C287.094 43.7648 280.535 66.665 273.976 89.5652H266.912C271.453 74.8073 271.958 60.0494 269.435 46.3093C266.912 32.5692 257.83 24.9358 242.189 23.4091H199.806C183.155 21.8824 172.055 29.0069 166.505 44.7826L141.277 126.714L76.1885 344.012C74.6748 348.592 75.6839 352.154 78.2067 354.19C80.7295 356.225 84.766 357.243 89.307 357.752C93.8481 358.261 97.8845 358.77 101.921 358.77H104.444L102.93 362.841C94.8572 362.841 86.7842 362.841 78.7113 362.332C71.1429 361.823 63.0699 361.823 54.4924 361.823C46.4195 362.332 38.3465 362.332 30.2736 362.332C22.2006 362.841 14.1277 362.841 6.05471 362.841L7.06383 358.77H9.58663C16.1459 359.278 23.2097 358.261 30.2736 356.734C36.8328 355.207 41.8784 351.136 44.4012 344.012L134.717 44.7826C137.24 36.1314 136.736 30.0247 132.699 26.9713C128.158 24.4269 122.103 22.9002 114.535 23.4091H72.152C55.5015 24.9358 41.8784 32.5692 30.7781 46.3093C19.1733 60.0494 11.6049 74.8073 7.06383 89.5652H0Z" fill="white"/>
<path d="M331.377 134.348C323.809 131.294 314.727 132.821 303.627 139.437C292.022 146.052 281.426 154.704 270.83 165.899L267.298 163.864C288.994 131.803 313.213 114.501 340.964 112.974C352.064 112.974 359.633 116.028 363.165 122.643C368.21 131.294 369.724 141.472 367.201 153.686C365.687 161.828 364.174 169.461 361.651 176.586L342.982 225.949L335.414 245.795L331.377 254.447L309.177 314.496C307.158 321.62 306.149 327.727 306.149 332.307C306.654 338.923 308.672 343.503 313.213 346.047C320.782 349.101 329.864 347.065 341.468 340.449C352.569 333.834 363.165 325.183 373.76 313.987L377.292 316.023C355.596 348.083 330.873 365.385 303.122 367.421C292.526 366.912 284.958 363.859 280.921 357.243C276.38 349.101 274.867 338.923 277.389 326.2C278.903 318.567 280.417 310.934 282.94 303.3L301.608 253.938L302.113 253.429L313.213 225.44H312.709L334.909 165.39C336.927 160.301 337.937 154.703 338.441 148.597C338.946 142.49 336.423 137.91 331.377 134.348ZM378.301 55.9782C371.742 55.9782 366.192 53.9427 362.155 49.3626C358.119 44.7826 356.101 39.6937 356.101 33.587C356.101 24.9358 359.633 16.7935 366.192 10.1779C372.751 3.56227 380.32 0 388.393 0C394.952 0 400.502 2.03558 404.538 6.61561C408.575 11.1957 410.593 16.2846 410.593 22.9002C410.593 31.5514 407.566 39.1848 401.007 45.8004C394.447 52.416 386.879 55.9782 378.301 55.9782Z" fill="white"/>
<path d="M488.634 134.348C481.066 131.294 471.984 132.821 460.379 139.437C448.774 146.052 438.178 155.212 427.583 166.917L424.051 164.881C445.747 132.312 470.975 115.01 498.725 112.465C509.321 112.465 516.89 115.519 520.422 121.625C524.458 128.241 525.972 135.366 525.467 143.508C524.458 152.159 522.944 160.301 520.422 167.935L486.111 268.187C496.707 248.34 508.817 225.949 523.449 202.031C537.577 178.113 553.218 157.757 569.868 140.454C586.519 123.152 603.674 113.992 621.838 113.483C628.397 112.974 633.443 113.483 637.984 114.501C642.525 116.028 646.057 118.063 649.589 120.608C660.689 129.259 665.735 139.946 664.726 153.686C663.212 167.426 660.689 180.148 656.148 191.853L614.27 314.496C609.729 332.307 611.242 342.994 618.811 346.556C626.379 350.118 636.47 348.083 648.075 340.449C659.68 333.325 670.78 324.165 680.871 312.969L685.412 315.005C675.826 330.272 664.221 342.994 650.598 352.663C636.47 362.841 622.847 367.93 609.729 367.93C593.078 365.894 583.996 357.752 582.482 344.012C580.969 330.272 582.987 316.531 587.528 302.791L619.82 207.628L621.838 202.539C626.379 190.835 630.415 178.113 632.938 163.355C635.461 148.597 631.425 137.91 621.838 130.786C609.224 125.188 595.601 127.732 580.969 139.437C566.336 151.141 552.713 166.408 539.595 186.255C528.494 203.557 516.385 223.913 503.267 247.831C490.148 271.749 479.552 292.105 471.984 309.407L471.479 309.916V310.425L470.975 311.951C470.47 312.46 470.47 313.987 469.966 315.514C468.452 319.585 466.938 324.674 464.92 330.272C462.902 335.869 460.884 341.976 459.37 347.574C457.352 353.681 455.333 358.77 453.82 362.841H423.042L491.157 163.355C492.671 158.775 494.184 153.177 494.689 147.07C495.194 141.472 493.175 136.892 488.634 134.348Z" fill="white"/>
<path d="M850.447 122.134C833.796 124.679 817.146 136.892 801.504 158.775C785.863 180.657 772.745 206.102 762.653 234.6C752.562 263.098 747.517 288.542 747.517 310.934C747.012 333.325 754.58 346.556 769.213 350.627C783.34 352.154 798.982 345.029 815.632 329.763C832.283 314.496 847.419 296.685 861.547 276.838C875.675 256.991 885.766 240.198 892.325 226.966C893.839 222.386 895.353 216.788 897.371 210.682C899.389 203.048 901.407 196.433 902.921 190.835C902.416 169.97 897.875 153.177 889.298 139.946C880.216 126.714 867.097 120.608 850.447 122.134ZM756.094 369.456C737.93 367.93 726.325 355.207 721.279 332.307C715.729 309.407 720.775 278.364 735.407 239.18C741.966 220.86 751.049 202.031 761.644 183.201C772.24 164.372 785.863 148.597 801.504 135.366C817.146 122.643 836.319 116.028 858.015 116.028C871.638 116.028 883.748 119.081 895.353 124.679C906.453 130.277 914.526 139.946 919.067 153.177L953.881 112.465L959.936 112.974L895.857 316.531C891.821 334.343 893.839 345.029 901.407 348.592C908.976 352.154 919.067 350.118 930.672 342.485C942.277 335.361 952.872 326.2 962.459 315.005L967 317.04C957.918 332.307 946.818 345.03 933.194 355.207C919.571 365.385 906.453 370.474 892.83 369.965C878.198 368.439 869.115 362.332 866.088 351.136C863.061 339.941 863.565 326.709 867.097 311.951C870.629 297.194 874.161 283.453 878.702 271.749C880.216 267.169 881.225 263.607 882.234 260.044C874.666 273.276 863.565 288.542 849.942 305.845C835.815 323.656 820.678 338.414 804.532 351.136C787.881 363.859 771.735 369.965 756.094 369.456Z" fill="white"/>
</svg>
