<svg width="1933" height="371" viewBox="0 0 1933 371" fill="none" xmlns="http://www.w3.org/2000/svg">
<path d="M0.835938 89.667C8.47094 66.762 15.5969 43.857 22.2139 20.443C22.7229 18.407 23.2319 16.3709 23.7409 14.844C69.0419 17.389 114.852 18.407 160.662 17.898C206.981 17.898 253.809 16.88 300.128 14.844C299.619 16.3709 298.601 18.407 298.092 20.443C290.457 43.857 283.84 66.762 277.223 89.667H270.097C274.678 74.906 275.187 60.145 272.642 46.402C270.097 32.659 260.935 25.024 245.156 23.4969H202.4C185.603 21.97 174.405 29.096 168.806 44.875L143.356 126.824L77.6949 344.167C76.1679 348.748 77.1859 352.311 79.7309 354.347C82.2759 356.383 86.3479 357.401 90.9289 357.91C95.5099 358.419 99.5819 358.928 103.654 358.928H106.199L104.672 363C96.5279 363 88.3839 363 80.2399 362.491C72.6049 361.982 64.4609 361.982 55.8079 361.982C47.6639 362.491 39.5199 362.491 31.3759 362.491C23.2319 363 15.0879 363 6.94393 363L7.96194 358.928H10.5069C17.1239 359.437 24.2499 358.419 31.3759 356.892C37.9929 355.365 43.0829 351.293 45.6279 344.167L136.739 44.875C139.284 36.222 138.775 30.114 134.703 27.06C130.122 24.515 124.014 22.988 116.379 23.4969H73.6229C56.8259 25.024 43.0829 32.659 31.8849 46.402C20.1779 60.145 12.5429 74.906 7.96194 89.667H0.835938Z" fill="white"/>
<path d="M332.585 134.459C324.95 131.405 315.788 132.932 304.59 139.549C292.883 146.166 282.194 154.819 271.505 166.017L267.942 163.981C289.829 131.914 314.261 114.608 342.256 113.081C353.454 113.081 361.089 116.135 364.652 122.752C369.742 131.405 371.269 141.585 368.724 153.801C367.197 161.945 365.67 169.58 363.125 176.706L344.292 226.079L336.657 245.93L332.585 254.583L310.189 314.645C308.153 321.771 307.135 327.879 307.135 332.46C307.644 339.077 309.68 343.658 314.261 346.203C321.896 349.257 331.058 347.221 342.765 340.604C353.963 333.987 364.652 325.334 375.341 314.136L378.904 316.172C357.017 348.239 332.076 365.545 304.081 367.581C293.392 367.072 285.757 364.018 281.685 357.401C277.104 349.257 275.577 339.077 278.122 326.352C279.649 318.717 281.176 311.082 283.721 303.447L302.554 254.074L303.063 253.565L314.261 225.57H313.752L336.148 165.508C338.184 160.418 339.202 154.819 339.711 148.711C340.22 142.603 337.675 138.022 332.585 134.459ZM379.922 56.073C373.305 56.073 367.706 54.0369 363.634 49.4559C359.562 44.875 357.526 39.7849 357.526 33.677C357.526 25.024 361.089 16.88 367.706 10.263C374.323 3.64596 381.958 0.0829468 390.102 0.0829468C396.719 0.0829468 402.318 2.11895 406.39 6.69995C410.462 11.281 412.498 16.3709 412.498 22.988C412.498 31.641 409.444 39.276 402.827 45.893C396.21 52.51 388.575 56.073 379.922 56.073Z" fill="white"/>
<path d="M488.681 134.459C481.046 131.405 471.884 132.932 460.177 139.549C448.47 146.166 437.781 155.328 427.092 167.035L423.529 164.999C445.416 132.423 470.866 115.117 498.861 112.572C509.55 112.572 517.185 115.626 520.748 121.734C524.82 128.351 526.347 135.477 525.838 143.621C524.82 152.274 523.293 160.418 520.748 168.053L486.136 268.326C496.825 248.475 509.041 226.079 523.802 202.156C538.054 178.233 553.833 157.873 570.63 140.567C587.427 123.261 604.733 114.099 623.057 113.59C629.674 113.081 634.764 113.59 639.345 114.608C643.926 116.135 647.489 118.171 651.052 120.716C662.25 129.369 667.34 140.058 666.322 153.801C664.795 167.544 662.25 180.269 657.669 191.976L615.422 314.645C610.841 332.46 612.368 343.149 620.003 346.712C627.638 350.275 637.818 348.239 649.525 340.604C661.232 333.478 672.43 324.316 682.61 313.118L687.191 315.154C677.52 330.424 665.813 343.149 652.07 352.82C637.818 363 624.075 368.09 610.841 368.09C594.044 366.054 584.882 357.91 583.355 344.167C581.828 330.424 583.864 316.681 588.445 302.938L621.021 207.755L623.057 202.665C627.638 190.958 631.71 178.233 634.255 163.472C636.8 148.711 632.728 138.022 623.057 130.896C610.332 125.297 596.589 127.842 581.828 139.549C567.067 151.256 553.324 166.526 540.09 186.377C528.892 203.683 516.676 224.043 503.442 247.966C490.208 271.889 479.519 292.249 471.884 309.555L471.375 310.064V310.573L470.866 312.1C470.357 312.609 470.357 314.136 469.848 315.663C468.321 319.735 466.794 324.825 464.758 330.424C462.722 336.023 460.686 342.131 459.159 347.73C457.123 353.838 455.087 358.928 453.56 363H422.511L491.226 163.472C492.753 158.891 494.28 153.292 494.789 147.184C495.298 141.585 493.262 137.004 488.681 134.459Z" fill="white"/>
<path d="M851.132 122.243C834.335 124.788 817.538 137.004 801.759 158.891C785.98 180.778 772.746 206.228 762.566 234.732C752.386 263.236 747.296 288.686 747.296 311.082C746.787 333.478 754.422 346.712 769.183 350.784C783.435 352.311 799.214 345.185 816.011 329.915C832.808 314.645 848.078 296.83 862.33 276.979C876.582 257.128 886.762 240.331 893.379 227.097C894.906 222.516 896.433 216.917 898.469 210.809C900.505 203.174 902.541 196.557 904.068 190.958C903.559 170.089 898.978 153.292 890.325 140.058C881.163 126.824 867.929 120.716 851.132 122.243ZM755.949 369.617C737.625 368.09 725.918 355.365 720.828 332.46C715.229 309.555 720.319 278.506 735.08 239.313C741.697 220.989 750.859 202.156 761.548 183.323C772.237 164.49 785.98 148.711 801.759 135.477C817.538 122.752 836.88 116.135 858.767 116.135C872.51 116.135 884.726 119.189 896.433 124.788C907.631 130.387 915.775 140.058 920.356 153.292L955.477 112.572L961.585 113.081L896.942 316.681C892.87 334.496 894.906 345.185 902.541 348.748C910.176 352.311 920.356 350.275 932.063 342.64C943.77 335.514 954.459 326.352 964.13 315.154L968.711 317.19C959.549 332.46 948.351 345.185 934.608 355.365C920.865 365.545 907.631 370.635 893.888 370.126C879.127 368.599 869.965 362.491 866.911 351.293C863.857 340.095 864.366 326.861 867.929 312.1C871.492 297.339 875.055 283.596 879.636 271.889C881.163 267.308 882.181 263.745 883.199 260.182C875.564 273.416 864.366 288.686 850.623 305.992C836.371 323.807 821.101 338.568 804.813 351.293C788.016 364.018 771.728 370.126 755.949 369.617Z" fill="white"/>
<path d="M1421.59 344.167C1420.57 348.748 1421.59 352.311 1424.13 354.347C1426.68 356.383 1430.24 357.401 1434.82 357.91C1439.4 358.419 1443.47 358.928 1448.05 358.928H1450.6L1449.07 363C1440.93 363 1432.78 363 1424.64 362.491C1416.5 361.982 1408.35 361.982 1400.21 361.982C1392.06 362.491 1383.92 362.491 1375.78 362.491C1367.63 363 1359.49 363 1351.34 363L1352.36 358.928H1354.91C1361.52 359.437 1368.65 358.419 1375.78 356.892C1382.39 355.365 1387.48 351.293 1390.03 344.167C1421.08 241.858 1451.62 139.549 1482.16 37.24C1434.31 107.482 1386.47 177.724 1338.11 247.457C1311.64 286.141 1285.17 324.825 1258.71 363H1252.6L1212.9 50.983L1124.33 344.167C1123.31 350.784 1125.35 354.856 1130.44 356.383C1132.98 357.401 1136.55 357.91 1140.11 358.419C1143.67 358.928 1147.24 358.928 1150.8 358.928H1153.34L1151.82 363H1140.62C1136.04 362.491 1130.95 362.491 1126.37 362.491C1121.79 362.491 1117.71 362.491 1115.17 362.491H1096.34C1090.74 363 1084.63 363 1079.03 363L1080.56 358.928H1082.59C1089.21 359.437 1096.34 358.419 1103.46 356.892C1110.08 355.365 1115.17 351.293 1118.22 344.167L1210.86 36.222C1211.88 31.132 1210.86 27.569 1208.32 25.533C1205.77 23.4969 1202.21 22.479 1197.63 21.97C1193.05 21.461 1188.46 21.461 1183.88 21.461H1181.85L1183.37 16.88C1189.48 16.88 1195.59 16.88 1201.7 17.389C1208.82 17.898 1215.95 17.898 1222.57 17.898L1237.84 17.389H1243.95L1282.63 318.208L1488.27 16.88C1489.79 16.88 1490.81 16.88 1491.83 17.389C1501.5 17.898 1510.66 17.898 1519.82 17.898C1522.88 17.389 1525.93 17.389 1528.48 17.389C1537.13 16.88 1545.27 16.88 1553.42 16.88L1551.89 21.461H1549.85C1543.24 20.952 1536.11 21.461 1529.49 22.988C1522.37 24.515 1517.28 29.096 1514.22 36.222C1483.18 138.531 1452.64 241.349 1421.59 344.167Z" fill="white"/>
<path d="M1634.97 122.243C1618.18 124.788 1601.38 137.004 1585.6 158.891C1569.82 180.778 1556.59 206.228 1546.41 234.732C1536.23 263.236 1531.14 288.686 1531.14 311.082C1530.63 333.478 1538.26 346.712 1553.02 350.784C1567.28 352.311 1583.05 345.185 1599.85 329.915C1616.65 314.645 1631.92 296.83 1646.17 276.979C1660.42 257.128 1670.6 240.331 1677.22 227.097C1678.75 222.516 1680.27 216.917 1682.31 210.809C1684.35 203.174 1686.38 196.557 1687.91 190.958C1687.4 170.089 1682.82 153.292 1674.17 140.058C1665 126.824 1651.77 120.716 1634.97 122.243ZM1539.79 369.617C1521.47 368.09 1509.76 355.365 1504.67 332.46C1499.07 309.555 1504.16 278.506 1518.92 239.313C1525.54 220.989 1534.7 202.156 1545.39 183.323C1556.08 164.49 1569.82 148.711 1585.6 135.477C1601.38 122.752 1620.72 116.135 1642.61 116.135C1656.35 116.135 1668.57 119.189 1680.27 124.788C1691.47 130.387 1699.62 140.058 1704.2 153.292L1739.32 112.572L1745.43 113.081L1680.78 316.681C1676.71 334.496 1678.75 345.185 1686.38 348.748C1694.02 352.311 1704.2 350.275 1715.9 342.64C1727.61 335.514 1738.3 326.352 1747.97 315.154L1752.55 317.19C1743.39 332.46 1732.19 345.185 1718.45 355.365C1704.71 365.545 1691.47 370.635 1677.73 370.126C1662.97 368.599 1653.81 362.491 1650.75 351.293C1647.7 340.095 1648.21 326.861 1651.77 312.1C1655.33 297.339 1658.9 283.596 1663.48 271.889C1665 267.308 1666.02 263.745 1667.04 260.182C1659.4 273.416 1648.21 288.686 1634.46 305.992C1620.21 323.807 1604.94 338.568 1588.65 351.293C1571.86 364.018 1555.57 370.126 1539.79 369.617Z" fill="white"/>
<path d="M1853.04 134.459C1845.41 131.405 1836.25 132.932 1825.05 139.549C1813.34 146.166 1802.65 154.819 1791.96 166.017L1788.4 163.981C1810.29 131.914 1834.72 114.608 1862.71 113.081C1873.91 113.081 1881.55 116.135 1885.11 122.752C1890.2 131.405 1891.73 141.585 1889.18 153.801C1887.66 161.945 1886.13 169.58 1883.58 176.706L1864.75 226.079L1857.12 245.93L1853.04 254.583L1830.65 314.645C1828.61 321.771 1827.59 327.879 1827.59 332.46C1828.1 339.077 1830.14 343.658 1834.72 346.203C1842.35 349.257 1851.52 347.221 1863.22 340.604C1874.42 333.987 1885.11 325.334 1895.8 314.136L1899.36 316.172C1877.48 348.239 1852.53 365.545 1824.54 367.581C1813.85 367.072 1806.22 364.018 1802.14 357.401C1797.56 349.257 1796.04 339.077 1798.58 326.352C1800.11 318.717 1801.63 311.082 1804.18 303.447L1823.01 254.074L1823.52 253.565L1834.72 225.57H1834.21L1856.61 165.508C1858.64 160.418 1859.66 154.819 1860.17 148.711C1860.68 142.603 1858.13 138.022 1853.04 134.459ZM1900.38 56.073C1893.76 56.073 1888.16 54.0369 1884.09 49.4559C1880.02 44.875 1877.98 39.7849 1877.98 33.677C1877.98 25.024 1881.55 16.88 1888.16 10.263C1894.78 3.64596 1902.42 0.0829468 1910.56 0.0829468C1917.18 0.0829468 1922.78 2.11895 1926.85 6.69995C1930.92 11.281 1932.96 16.3709 1932.96 22.988C1932.96 31.641 1929.9 39.276 1923.29 45.893C1916.67 52.51 1909.03 56.073 1900.38 56.073Z" fill="white"/>
</svg>
